<svg display="none" xmlns="http://www.w3.org/2000/svg">

	<!-- magnifier -->
	<symbol id="magnifier" viewBox="0 0 410.587 410.588">
		<g>
			<path d="M410.587,371.351l-50.044-50.044l-39.866-39.866c20.505-28.842,32.685-63.996,32.685-102.009
			c0-97.424-79.263-176.687-176.684-176.687C79.251,2.745,0,82.008,0,179.432c0,97.423,79.251,176.675,176.678,176.675
			c40.698,0,78.116-13.963,108.01-37.167l68.508,68.508c0.841,0.841,1.784,1.509,2.705,2.207l18.194,18.188L410.587,371.351z
			M176.689,314.548c-74.503-0.006-135.111-60.622-135.111-135.111c0-74.5,60.614-135.108,135.111-135.108
			c74.498,0,135.108,60.608,135.108,135.108c0,30.998-10.59,59.507-28.218,82.333c-5.833,7.537-12.374,14.49-19.642,20.654
			C240.374,302.409,209.94,314.548,176.689,314.548z"/>
		</g>
	</symbol>

	<!-- facebook -->
	<symbol id="facebook" viewBox="0 0 24 24">
		<g>
			<path d="M15.12,5.32H17V2.14A26.11,26.11,0,0,0,14.26,2C11.54,2,9.68,3.66,9.68,6.7V9.32H6.61v3.56H9.68V22h3.68V12.88h3.06l.46-3.56H13.36V7.05C13.36,6,13.64,5.32,15.12,5.32Z"></path>
		</g>
	</symbol>

	<!-- twitter -->
	<symbol id="twitter" viewBox="0 0 24 24">
		<g>
			<path d="M22,5.8a8.49,8.49,0,0,1-2.36.64,4.13,4.13,0,0,0,1.81-2.27,8.21,8.21,0,0,1-2.61,1,4.1,4.1,0,0,0-7,3.74A11.64,11.64,0,0,1,3.39,4.62a4.16,4.16,0,0,0-.55,2.07A4.09,4.09,0,0,0,4.66,10.1,4.05,4.05,0,0,1,2.8,9.59v.05a4.1,4.1,0,0,0,3.3,4A3.93,3.93,0,0,1,5,13.81a4.9,4.9,0,0,1-.77-.07,4.11,4.11,0,0,0,3.83,2.84A8.22,8.22,0,0,1,3,18.34a7.93,7.93,0,0,1-1-.06,11.57,11.57,0,0,0,6.29,1.85A11.59,11.59,0,0,0,20,8.45c0-.17,0-.35,0-.53A8.43,8.43,0,0,0,22,5.8Z"/>
		</g>
	</symbol>

	<!-- chat -->
	<symbol id="chat" viewBox="0 0 32 32">
		<g>
			<path d="M27.91 11.79c.176.792.278 1.606.278 2.442 0 6.456-5.48 11.838-12.696 12.994 1.526.616 3.236.976 5.058.976 1.718 0 3.34-.316 4.804-.866 1.854.632 3.878.796 5.552.796A14.237 14.237 0 0 1 29 25.164c1.856-1.656 3-3.85 3-6.266 0-2.856-1.594-5.402-4.09-7.108zm-2.722 2.442C25.188 8.582 19.55 4 12.594 4S0 8.582 0 14.232c0 2.948 1.542 5.596 3.998 7.464a15.646 15.646 0 0 1-2.57 4.344c2.516 0 5.756-.33 8.25-1.862.938.182 1.912.288 2.916.288 6.956-.002 12.594-4.582 12.594-10.234z"/>
		</g>
	</symbol>

	<!-- dribble -->
	<symbol id="dribble" viewBox="0 0 32 32">
		<g>
			<path d="M26 4.9c0-.1 0-.1 0 0C23.3 2.4 19.8 1 16 1c-1.7 0-3.3.3-4.9.8-.2 0-.4.1-.6.2C5 4.2 1 9.7 1 16c0 4.1 1.6 7.7 4.2 10.4l.1.1C8 29.3 11.8 31 16 31c8.3 0 15-6.7 15-15 0-4.4-1.9-8.4-5-11.1zM16 4c2.7 0 5.1.9 7.1 2.4-.6 1-2.2 2.8-5.4 4-1-2.1-2.3-4.2-3.8-6.2.7-.1 1.4-.2 2.1-.2zm-5.1 1.2c1.6 2 2.8 4.1 3.9 6.2-2.6.6-5.8.8-10 .6 1.1-3.1 3.3-5.5 6.1-6.8zM4 16c0-.4 0-.8.1-1.2 1.4.2 2.7.2 3.9.2 3.2 0 5.8-.3 8-.9.2.4.3.8.5 1.2-5.3 1.8-8.6 5.4-10.3 7.6C4.9 21 4 18.6 4 16zm12 12c-2.9 0-5.5-1-7.6-2.7 1.2-1.7 4.1-5.3 9.1-7 1.3 4.4 1.7 7.9 1.8 9.2-1 .3-2.1.5-3.3.5zm3-14.8c3.4-1.4 5.4-3.2 6.4-4.7 1.4 1.7 2.3 3.9 2.6 6.2-3.1-.6-5.9-.6-8.4-.1-.3-.4-.4-.9-.6-1.4zm3.3 13c-.2-1.8-.7-5-1.8-8.7 2.1-.3 4.6-.3 7.3.3-.5 3.5-2.6 6.6-5.5 8.4z"/>
		</g>
	</symbol>

	<!-- smartphone -->
	<symbol id="smartphone" viewBox="0 0 60 60">
		<g>
			<path d="M54.199,46.02c-0.549-0.103-1.069,0.241-1.18,0.781C51.903,52.303,47.574,56,42.249,56c-5.028,0-9.446-3.3-10.948-8H36v-2
				h-8v8h2v-3.849C32.169,54.833,36.915,58,42.249,58c6.304,0,11.42-4.341,12.731-10.801C55.09,46.657,54.74,46.13,54.199,46.02z"/>
			<path d="M54,34v4.309C51.75,33.854,47.296,31,42.249,31c-6.109,0-11.541,3.997-13.209,9.721c-0.154,0.53,0.15,1.085,0.681,1.239
				c0.531,0.157,1.086-0.15,1.239-0.681C32.358,36.482,37.105,33,42.249,33c4.565,0,8.562,2.766,10.33,7H48v2h8v-8H54z"/>
			<path d="M21,49c-2.206,0-4,1.794-4,4s1.794,4,4,4s4-1.794,4-4S23.206,49,21,49z M21,55c-1.103,0-2-0.897-2-2s0.897-2,2-2
				s2,0.897,2,2S22.103,55,21,55z"/>
			<path d="M33.595,58H8.405C7.079,58,6,56.921,6,55.595V48h18c0.553,0,1-0.447,1-1s-0.447-1-1-1H6V8h30v22c0,0.553,0.447,1,1,1
				s1-0.447,1-1V4.405C38,1.977,36.023,0,33.595,0H8.405C5.977,0,4,1.977,4,4.405v51.189C4,58.023,5.977,60,8.405,60h25.189
				c0.553,0,1-0.447,1-1S34.147,58,33.595,58z M8.405,2h25.189C34.921,2,36,3.079,36,4.405V6H6V4.405C6,3.079,7.079,2,8.405,2z"/>
			<path d="M17,5h4c0.553,0,1-0.447,1-1s-0.447-1-1-1h-4c-0.553,0-1,0.447-1,1S16.447,5,17,5z"/>
			<path d="M24,5h1c0.553,0,1-0.447,1-1s-0.447-1-1-1h-1c-0.553,0-1,0.447-1,1S23.447,5,24,5z"/>
		</g>
	</symbol>


	

</svg>